<svg width="10" height="10" viewBox="0 0 10 10" fill="none" xmlns="http://www.w3.org/2000/svg">
<path d="M1 4.99769C1 2.78983 2.78983 1 4.99769 1C7.20555 1 8.99538 2.78983 8.99538 4.99769C8.99538 7.20555 7.20555 8.99538 4.99769 8.99538C2.78983 8.99538 1 7.20555 1 4.99769Z" fill="#ACACAC"/>
<path d="M5.34839 3.85081C5.54349 3.65539 5.54322 3.3388 5.3478 3.14371C5.15237 2.94861 4.83579 2.94888 4.64069 3.1443L3.14322 4.64431C2.94835 4.8395 2.94835 5.15563 3.14322 5.35082L4.64069 6.85081C4.83579 7.04624 5.15237 7.04651 5.3478 6.85141C5.54322 6.65631 5.54349 6.33973 5.34839 6.1443L4.70274 5.49756H6.50234C6.77848 5.49756 7.00234 5.27371 7.00234 4.99756C7.00234 4.72142 6.77848 4.49756 6.50234 4.49756H4.70273L5.34839 3.85081Z" fill="#6E6E6E"/>
<path d="M4.99769 0C2.23754 0 0 2.23754 0 4.99769C0 7.75784 2.23754 9.99538 4.99769 9.99538C7.75784 9.99538 9.99538 7.75784 9.99538 4.99769C9.99538 2.23754 7.75784 0 4.99769 0ZM1 4.99769C1 2.78983 2.78983 1 4.99769 1C7.20555 1 8.99538 2.78983 8.99538 4.99769C8.99538 7.20555 7.20555 8.99538 4.99769 8.99538C2.78983 8.99538 1 7.20555 1 4.99769Z" fill="#212121"/>
</svg>
