<svg width="20" height="20" viewBox="0 0 20 20" fill="none" xmlns="http://www.w3.org/2000/svg">
<path d="M11.9725 7H10.5C8.567 7 7 8.567 7 10.5V11.9725C4.75002 11.7238 3 9.81628 3 7.5C3 5.01472 5.01472 3 7.5 3C9.81628 3 11.7238 4.75002 11.9725 7Z" fill="#ACACAC"/>
<path d="M10.5 9C9.67157 9 9 9.67157 9 10.5V15.5C9 16.3284 9.67157 17 10.5 17H15.5C16.3284 17 17 16.3284 17 15.5V10.5C17 9.67157 16.3284 9 15.5 9H10.5Z" fill="#6E6E6E"/>
<path d="M7.5 3C9.81628 3 11.7238 4.75002 11.9725 7H12.9776C12.725 4.19675 10.369 2 7.5 2C4.46243 2 2 4.46243 2 7.5C2 10.369 4.19675 12.725 7 12.9776V11.9725C4.75002 11.7238 3 9.81628 3 7.5C3 5.01472 5.01472 3 7.5 3Z" fill="#212121"/>
<path fill-rule="evenodd" clip-rule="evenodd" d="M10.5 8C9.11929 8 8 9.11929 8 10.5V15.5C8 16.8807 9.11929 18 10.5 18H15.5C16.8807 18 18 16.8807 18 15.5V10.5C18 9.11929 16.8807 8 15.5 8H10.5ZM9 10.5C9 9.67157 9.67157 9 10.5 9H15.5C16.3284 9 17 9.67157 17 10.5V15.5C17 16.3284 16.3284 17 15.5 17H10.5C9.67157 17 9 16.3284 9 15.5V10.5Z" fill="#212121"/>
</svg>
