<svg width="10" height="10" viewBox="0 0 10 10" fill="none" xmlns="http://www.w3.org/2000/svg">
<path d="M8.15797 2.54909C8.68289 3.22558 8.99538 4.07514 8.99538 4.99769C8.99538 7.20555 7.20555 8.99538 4.99769 8.99538C4.07514 8.99538 3.22558 8.68289 2.54909 8.15797L8.15797 2.54909Z" fill="#ACACAC"/>
<path d="M7.45144 1.84141C6.77439 1.3143 5.92329 1.00026 4.99884 1C2.79024 1.00062 1 2.79125 1 5C1 5.92434 1.31353 6.77546 1.84005 7.4528L7.45144 1.84141Z" fill="#ACACAC"/>
<path d="M4.99769 0C2.23754 0 0 2.23754 0 4.99769C0 7.75784 2.23754 9.99538 4.99769 9.99538C7.75784 9.99538 9.99538 7.75784 9.99538 4.99769C9.99538 2.23754 7.75784 0 4.99769 0ZM1 4.99769C1 2.78983 2.78983 1 4.99769 1C7.20555 1 8.99538 2.78983 8.99538 4.99769C8.99538 7.20555 7.20555 8.99538 4.99769 8.99538C2.78983 8.99538 1 7.20555 1 4.99769Z" fill="#212121"/>
<path fill-rule="evenodd" clip-rule="evenodd" d="M8.16296 1.12994L1.12994 8.16296C1.34168 8.42138 1.57881 8.6582 1.83751 8.8696L8.86961 1.83751C8.6582 1.57881 8.42138 1.34168 8.16296 1.12994Z" fill="#6E6E6E"/>
</svg>
