<svg width="10" height="10" viewBox="0 0 10 10" fill="none" xmlns="http://www.w3.org/2000/svg">
<path d="M1 4.99769C1 2.78983 2.78983 1 4.99769 1C7.20555 1 8.99538 2.78983 8.99538 4.99769C8.99538 7.20555 7.20555 8.99538 4.99769 8.99538C2.78983 8.99538 1 7.20555 1 4.99769Z" fill="#ACACAC"/>
<path d="M6.85355 3.14645C7.04882 3.34171 7.04882 3.65829 6.85355 3.85355L5.70711 5L6.85355 6.14645C7.04882 6.34171 7.04882 6.65829 6.85355 6.85355C6.65829 7.04882 6.34171 7.04882 6.14645 6.85355L5 5.70711L3.85355 6.85355C3.65829 7.04882 3.34171 7.04882 3.14645 6.85355C2.95118 6.65829 2.95118 6.34171 3.14645 6.14645L4.29289 5L3.14645 3.85355C2.95118 3.65829 2.95118 3.34171 3.14645 3.14645C3.34171 2.95118 3.65829 2.95118 3.85355 3.14645L5 4.29289L6.14645 3.14645C6.34171 2.95118 6.65829 2.95118 6.85355 3.14645Z" fill="#6E6E6E"/>
<path d="M4.99769 0C2.23754 0 0 2.23754 0 4.99769C0 7.75784 2.23754 9.99538 4.99769 9.99538C7.75784 9.99538 9.99538 7.75784 9.99538 4.99769C9.99538 2.23754 7.75784 0 4.99769 0ZM1 4.99769C1 2.78983 2.78983 1 4.99769 1C7.20555 1 8.99538 2.78983 8.99538 4.99769C8.99538 7.20555 7.20555 8.99538 4.99769 8.99538C2.78983 8.99538 1 7.20555 1 4.99769Z" fill="#212121"/>
</svg>
