<svg width="20" height="20" viewBox="0 0 20 20" fill="none" xmlns="http://www.w3.org/2000/svg">
<path d="M10.0009 3.34131L8.07051 7.25281C7.92485 7.54795 7.64328 7.75252 7.31757 7.79985L3.00098 8.42709L6.12449 11.4718C6.36018 11.7015 6.46773 12.0325 6.41209 12.3569L5.67473 16.656L9.53561 14.6263C9.82693 14.4731 10.175 14.4731 10.4663 14.6263L14.3272 16.656L13.5898 12.3569C13.5342 12.0325 13.6417 11.7015 13.8774 11.4718L17.0009 8.42709L12.6843 7.79985C12.3586 7.75252 12.077 7.54795 11.9314 7.25281L10.0009 3.34131Z" fill="#6E6E6E"/>
<path d="M9.10433 2.89874C9.47114 2.15549 10.531 2.1555 10.8978 2.89874L12.8282 6.81024L17.1448 7.43748C17.9651 7.55666 18.2926 8.56464 17.699 9.14317L14.5755 12.1878L15.3129 16.487C15.453 17.3039 14.5956 17.9269 13.8619 17.5412L10.0011 15.5114L6.14018 17.5412C5.40655 17.9269 4.54913 17.3039 4.68924 16.487L5.4266 12.1878L2.30308 9.14317C1.70956 8.56463 2.03708 7.55666 2.8573 7.43748L7.17389 6.81024L9.10433 2.89874ZM10.0011 3.34131L8.07062 7.25281C7.92496 7.54795 7.6434 7.75252 7.31769 7.79985L3.00109 8.42709L6.12461 11.4718C6.3603 11.7015 6.46784 12.0325 6.41221 12.3569L5.67484 16.656L9.53572 14.6263C9.82705 14.4731 10.1751 14.4731 10.4664 14.6263L14.3273 16.656L13.5899 12.3569C13.5343 12.0325 13.6418 11.7015 13.8775 11.4718L17.001 8.42709L12.6844 7.79985C12.3587 7.75252 12.0772 7.54795 11.9315 7.25281L10.0011 3.34131Z" fill="#212121"/>
</svg>
