<svg width="10" height="10" viewBox="0 0 10 10" fill="none" xmlns="http://www.w3.org/2000/svg">
<path d="M1 4.99769C1 2.78983 2.78983 1 4.99769 1C7.20555 1 8.99538 2.78983 8.99538 4.99769C8.99538 7.20555 7.20555 8.99538 4.99769 8.99538C2.78983 8.99538 1 7.20555 1 4.99769Z" fill="#ACACAC"/>
<path d="M5 3.00415V4.79311L6.35355 6.14666C6.54882 6.34192 6.54882 6.65851 6.35355 6.85377C6.15829 7.04903 5.84171 7.04903 5.64645 6.85377L4.14645 5.35377C4.05268 5.26 4 5.13282 4 5.00022V3.00415C4 2.72801 4.22386 2.50415 4.5 2.50415C4.77614 2.50415 5 2.72801 5 3.00415Z" fill="#6E6E6E"/>
<path d="M4.99769 0C2.23754 0 0 2.23754 0 4.99769C0 7.75784 2.23754 9.99538 4.99769 9.99538C7.75784 9.99538 9.99538 7.75784 9.99538 4.99769C9.99538 2.23754 7.75784 0 4.99769 0ZM1 4.99769C1 2.78983 2.78983 1 4.99769 1C7.20555 1 8.99538 2.78983 8.99538 4.99769C8.99538 7.20555 7.20555 8.99538 4.99769 8.99538C2.78983 8.99538 1 7.20555 1 4.99769Z" fill="#212121"/>
</svg>
